<svg xmlns="http://www.w3.org/2000/svg" role="img" aria-labelledby="title desc" viewBox="0 0 1200 650">
  <title id="title">CaptionMan Model Routing Map</title>
  <desc id="desc">A routing diagram showing visual analysis, batched caption writing, output safety, an optional specialist, and budget controls.</desc>
  <defs>
    <linearGradient id="brand" x1="0" x2="1">
      <stop offset="0" stop-color="#7357ff"/>
      <stop offset="1" stop-color="#ec64d8"/>
    </linearGradient>
    <filter id="shadow" x="-20%" y="-20%" width="140%" height="145%">
      <feDropShadow dx="0" dy="12" stdDeviation="14" flood-color="#251f4f" flood-opacity="0.13"/>
    </filter>
    <marker id="arrow" viewBox="0 0 10 10" refX="8" refY="5" markerWidth="8" markerHeight="8" orient="auto">
      <path d="M0 0 L10 5 L0 10 z" fill="#8b7cff"/>
    </marker>
    <style>
      .h{font:700 34px Arial,sans-serif;fill:#17172f}
      .p{font:500 18px Arial,sans-serif;fill:#2f2b45}
      .card{fill:#fff;stroke:#eadfff;stroke-width:2;rx:22;filter:url(#shadow)}
      .core{fill:url(#brand);rx:28;filter:url(#shadow)}
      .t{font:700 18px Arial,sans-serif;fill:#17172f}
      .tw{font:700 20px Arial,sans-serif;fill:#fff}
      .b{font:500 15px Arial,sans-serif;fill:#2f2b45}
      .bw{font:400 14px Arial,sans-serif;fill:#fff}
      .line{fill:none;stroke:#8b7cff;stroke-width:3;stroke-dasharray:9 9;marker-end:url(#arrow)}
      .dash{animation:dash 2.4s linear infinite}
      .pulse{animation:pulse 2.8s ease-in-out infinite}
      @keyframes dash{from{stroke-dashoffset:38}to{stroke-dashoffset:0}}
      @keyframes pulse{0%,100%{opacity:1}50%{opacity:.98}}
      @media (prefers-reduced-motion: reduce){.dash,.pulse{animation:none}}
    </style>
  </defs>
  <rect width="1200" height="650" fill="#fbf9ff"/>
  <text x="64" y="70" class="h">Model Routing With Guardrails</text>
  <text x="64" y="102" class="p">CaptionMan routes each job to the strongest verified role while keeping calls budgeted.</text>

  <rect x="455" y="205" width="290" height="215" class="core pulse"/>
  <text x="505" y="260" class="tw">Champion Route</text>
  <text x="505" y="292" class="bw">fireworks_qwen37_glm</text>
  <text x="505" y="332" class="bw">bounded calls per video</text>
  <text x="505" y="362" class="bw">schema adapter at output</text>

  <rect x="75" y="180" width="260" height="110" class="card pulse"/>
  <text x="110" y="218" class="t">Qwen 3.7 Vision</text>
  <text x="110" y="246" class="b">primary scene understanding</text>
  <text x="110" y="270" class="b">Kimi 2.7 counted fallback</text>

  <rect x="75" y="360" width="260" height="110" class="card pulse"/>
  <text x="110" y="402" class="t">Download + FFmpeg</text>
  <text x="110" y="430" class="b">safe URL and frame sampling</text>

  <rect x="865" y="170" width="260" height="95" class="card pulse"/>
  <text x="900" y="208" class="t">GLM Caption</text>
  <text x="900" y="235" class="b">natural four-style captions</text>

  <rect x="865" y="300" width="260" height="95" class="card pulse"/>
  <text x="900" y="338" class="t">Safety Gate</text>
  <text x="900" y="365" class="b">completeness + recovery</text>

  <rect x="865" y="430" width="260" height="95" class="card pulse"/>
  <text x="900" y="468" class="t">Gemma Specialist</text>
  <text x="900" y="495" class="b">configured, inactive option</text>

  <path d="M335 235 C395 235 405 275 448 296" class="line dash"/>
  <path d="M335 415 C395 415 405 370 448 338" class="line dash"/>
  <path d="M745 290 C805 250 815 220 857 218" class="line dash"/>
  <path d="M745 318 C805 318 815 348 857 348" class="line dash"/>
  <path d="M745 360 C805 418 815 476 857 476" class="line dash"/>

  <rect x="330" y="535" width="540" height="65" rx="20" fill="#fff" stroke="#eadfff" stroke-width="2"/>
  <text x="375" y="562" class="t">Doctor-visible truth</text>
  <text x="375" y="586" class="b">README claims follow verified routing state, not wishful model labels.</text>
</svg>
